<?xml version="1.0" encoding="utf-8"?>
<!-- Generator: Adobe Illustrator 23.0.5, SVG Export Plug-In . SVG Version: 6.00 Build 0)  -->
<svg version="1.1" id="Layer1"
	xmlns="http://www.w3.org/2000/svg"
	xmlns:xlink="http://www.w3.org/1999/xlink" x="0px" y="0px" viewBox="0 0 16 16" style="enable-background:new 0 0 16 16;" xml:space="preserve">
	<style type="text/css">
	.st0{fill:#F6F6F6;}
	.st1{fill:#424242;}
	.st2{fill:#00539C;}
	</style>
	<g>
		<path class="st0" d="M5.7,7.1C4.3,5,4.8,2.2,6.8,0.8s4.8-0.9,6.3,1.1c1.1,1.6,1.1,3.7,0,5.2c1.8,1.2,2.8,3.2,2.9,5.4v1h-3v-1
		C12.9,10.6,11.3,9,9.4,9C8.9,9,8.4,9.1,8,9.3"/>
		<path class="st0" d="M9.4,9.3c0-0.2,0-0.3,0-0.3s0,1.6,0,3.5v1l0,0v-1c0-2.2,0-4.2,0-5.4c0-1.5,0-3.6,0-5.2c0-2,0-2.5,0-1.1
		s0,4.2,0,6.3"/>
		<path class="st0" d="M10.9,9.3C10.5,9.1,10,9,9.5,9C7.6,9,6,10.6,5.9,12.5v1h-3v-1C3,10.3,4,8.3,5.8,7.1c-1.1-1.5-1.1-3.6,0-5.2
		c1.5-2,4.3-2.5,6.3-1.1s2.5,4.2,1.1,6.3"/>
	</g>
	<title>ExportUser</title>
	<path class="st0" d="M5.6,7L5.6,7"/>
	<path class="st1" d="M11.4,7.4c1.6-1.1,2-3.3,0.9-4.9S9,0.5,7.4,1.6s-2,3.3-0.9,4.9C6.7,6.9,7,7.2,7.4,7.4C7.1,7.5,8.6,8,9.4,8
	c2.5,0,4.5,2,4.5,4.5h1C14.9,10.2,13.5,8.2,11.4,7.4z M9.4,7C8,7,6.9,5.9,6.9,4.5S8,2,9.4,2s2.5,1.1,2.5,2.5S10.8,7,9.4,7z"/>
	<path class="st1" d="M3.9,12.5h1C4.9,10,6.9,8,9.4,8c0.8,0,2.3-0.5,2-0.6c0.4-0.2,0.7-0.5,0.9-0.9c1.1-1.6,0.7-3.8-0.9-4.9
	S7.6,0.9,6.5,2.5S5.8,6.3,7.4,7.4C5.3,8.2,3.9,10.2,3.9,12.5z M6.9,4.5C6.9,3.1,8,2,9.4,2s2.5,1.1,2.5,2.5S10.8,7,9.4,7
	S6.9,5.9,6.9,4.5z"/>
	<path class="st0" d="M6.6,13.9L4.5,16L0,11.5l2.2-2.2L4.5,7l2.1,2.1L5.7,10h4.5v3h-3l0,0H5.7L6.6,13.9"/>
	<path class="st2" d="M4.1,8.4l0.7,0.7L2.9,11h5.9v1H2.9l1.9,1.9l-0.7,0.7L1,11.5L4.1,8.4z"/>
</svg>
